{"title":"Maze Runner 3: The Death Cure (2018) Hindi Dubbed Movie HDRip","magnet":"magnet:?xt=urn:btih:846b3f34c1fcce36889a824351714d1fc3e58124&dn=Maze+Runner+3%3A+The+Death+Cure+%282018%29+Hindi+Dubbed+Movie+HDRip&tr=udp%3A%2F%2Ftracker.leechers-paradise.org%3A6969&tr=udp%3A%2F%2Fzer0day.ch%3A1337&tr=udp%3A%2F%2Fopen.demonii.com%3A1337&tr=udp%3A%2F%2Ftracker.coppersurfer.tk%3A6969&tr=udp%3A%2F%2Fexodus.desync.com%3A6969","uploader":"shmasti","categoryP":"video","categoryS":"movies","size":"1279056593","seeders":"1","leechers":"20","description":"General\r\nComplete name                  : Maze Runner 3 The Death Cure (2018) Hindi Dubbed Movie HDRip x264 AAC ESubs by Full4movies.mp4\r\nFormat                         : MPEG-4\r\nFormat profile                 : Base Media\r\nCodec ID                       : isom (isom/iso2/avc1/mp41)\r\nFile size                      : 1.19 GiB\r\nDuration                       : 2 h 23 min\r\nOverall bit rate               : 1 185 kb/s\r\nMovie name                     : Maze Runner 3: The Death Cure (2018) Hindi - www.Full4movies.co\r\nWriting application            : Lavf57.83.100\r\n\r\nVideo\r\nID                             : 1\r\nFormat                         : AVC\r\nFormat/Info                    : Advanced Video Codec\r\nFormat profile                 : <a href=\"/cdn-cgi/l/email-protection\" class=\"__cf_email__\" data-cfemail=\"3870515f5078740c1609\">[email&#xA0;protected]</a>\r\nFormat settings, CABAC         : Yes\r\nFormat settings, RefFrames     : 4 frames\r\nCodec ID                       : avc1\r\nCodec ID/Info                  : Advanced Video Coding\r\nDuration                       : 2 h 23 min\r\nBit rate                       : 1 050 kb/s\r\nWidth                          : 1 280 pixels\r\nHeight                         : 534 pixels\r\nDisplay aspect ratio           : 2.40:1\r\nOriginal display aspect ratio  : 2.40:1\r\nFrame rate mode                : Variable\r\nFrame rate                     : 23.976 FPS\r\nMinimum frame rate             : 23.564 FPS\r\nMaximum frame rate             : 24.390 FPS\r\nColor space                    : YUV\r\nChroma subsampling             : 4:2:0\r\nBit depth                      : 8 bits\r\nScan type                      : Progressive\r\nBits/(Pixel*Frame)             : 0.064\r\nStream size                    : 1.05 GiB (89%)\r\nWriting library                : x264 core 155\r\n\r\nAudio\r\nID                             : 2\r\nFormat                         : AAC\r\nFormat/Info                    : Advanced Audio Codec\r\nFormat profile                 : LC\r\nCodec ID                       : 40\r\nDuration                       : 2 h 23 min\r\nDuration_LastFrame             : -11 ms\r\nBit rate mode                  : Constant\r\nBit rate                       : 129 kb/s\r\nChannel(s)                     : 2 channels\r\nChannel positions              : Front: L R\r\nSampling rate                  : 48.0 kHz\r\nFrame rate                     : 46.875 FPS (1024 SPF)\r\nCompression mode               : Lossy\r\nStream size                    : 133 MiB (11%)\r\nLanguage                       : Hindi\r\nDefault                        : Yes\r\nAlternate group                : 1","last_updated":"2018-04-28T12:02:06.189Z","parsed":{"xt":"urn:btih:846b3f34c1fcce36889a824351714d1fc3e58124","dn":"Maze Runner 3: The Death Cure (2018) Hindi Dubbed Movie HDRip","tr":["udp://exodus.desync.com:6969","udp://open.demonii.com:1337","udp://tracker.coppersurfer.tk:6969","udp://tracker.leechers-paradise.org:6969","udp://zer0day.ch:1337"],"infoHash":"846b3f34c1fcce36889a824351714d1fc3e58124","infoHashBuffer":{"type":"Buffer","data":[132,107,63,52,193,252,206,54,136,154,130,67,81,113,77,31,195,229,129,36]},"name":"Maze Runner 3: The Death Cure (2018) Hindi Dubbed Movie HDRip","announce":["udp://exodus.desync.com:6969","udp://open.demonii.com:1337","udp://tracker.coppersurfer.tk:6969","udp://tracker.leechers-paradise.org:6969","udp://zer0day.ch:1337"],"urlList":[]}}